<svg width="275" height="276" viewBox="0 0 275 276" fill="none" xmlns="http://www.w3.org/2000/svg">
<rect x="38" y="33" width="219" height="201" fill="#C61919"/>
<circle cx="89.5" cy="89.5" r="89.5" fill="#129D6B"/>
<path d="M230.142 119.004C231.916 77.7403 231.03 35.2165 229 1C280.2 1 277.667 71.6667 270 107C257.775 110.029 244.108 114.056 230.142 119.004C225.799 220.044 205.506 313.53 147 259C77.9719 194.663 158.047 144.549 230.142 119.004Z" fill="#1C1B4E"/>
<path d="M229 1C236 119 229.4 335.8 147 259C64.6 182.2 194.667 125.667 270 107C277.667 71.6667 280.2 1 229 1Z" stroke="#2815FF"/>
</svg>
